<svg width="43" height="43" viewBox="0 0 43 43" fill="none" xmlns="http://www.w3.org/2000/svg">
<path d="M11.4262 28.1924C11.0981 27.8717 10.5663 27.8717 10.2384 28.1924L7.00884 31.3502L5.28791 29.6675C4.95995 29.3468 4.42825 29.3469 4.1002 29.6676C3.77216 29.9882 3.77224 30.5082 4.1002 30.8289L6.41498 33.0921C6.579 33.2525 6.79392 33.3327 7.00884 33.3327C7.22375 33.3327 7.43875 33.2525 7.60277 33.0922L11.4262 29.3538C11.7541 29.0331 11.7541 28.513 11.4262 28.1924Z" fill="#002B3E"/>
<path d="M32.7648 14.0749C32.7539 14.0224 32.7371 13.9707 32.7161 13.9214C32.6951 13.8721 32.6699 13.8237 32.6389 13.7793C32.6086 13.7342 32.5733 13.6923 32.5347 13.6545C32.4961 13.6167 32.4532 13.5822 32.4071 13.5527C32.3617 13.5231 32.313 13.4977 32.2626 13.4771C32.2114 13.4566 32.1585 13.441 32.1047 13.4303C31.9964 13.409 31.8855 13.409 31.7772 13.4303C31.7234 13.441 31.6705 13.4566 31.6201 13.4771C31.5689 13.4977 31.5202 13.5231 31.4748 13.5527C31.4286 13.5822 31.3858 13.6167 31.3472 13.6545C31.3085 13.6923 31.2733 13.7342 31.243 13.7793C31.2128 13.8237 31.1868 13.8721 31.1658 13.9214C31.1448 13.9707 31.1288 14.0224 31.1179 14.0749C31.107 14.1283 31.1011 14.1817 31.1011 14.2351C31.1011 14.2893 31.107 14.3427 31.1179 14.396C31.1288 14.4486 31.1448 14.5003 31.1658 14.5496C31.1868 14.5989 31.2128 14.6465 31.243 14.6908C31.2733 14.736 31.3085 14.7779 31.3472 14.8157C31.3858 14.8543 31.4286 14.8879 31.4748 14.9183C31.5202 14.9479 31.5689 14.9733 31.6201 14.9939C31.6705 15.0144 31.7234 15.03 31.7772 15.0407C31.8309 15.0513 31.8864 15.0563 31.9409 15.0563C31.9955 15.0563 32.051 15.0513 32.1047 15.0407C32.1585 15.03 32.2114 15.0144 32.2626 14.9939C32.313 14.9733 32.3618 14.9479 32.4071 14.9183C32.4532 14.8879 32.4961 14.8543 32.5347 14.8157C32.5733 14.7779 32.6086 14.736 32.6389 14.6908C32.6699 14.6465 32.6951 14.5989 32.7161 14.5496C32.7371 14.5003 32.7539 14.4486 32.7648 14.396C32.7757 14.3427 32.7808 14.2893 32.7808 14.2351C32.7808 14.1818 32.7757 14.1284 32.7648 14.0749Z" fill="#002B3E"/>
<path d="M42.1602 3.81152H9.95979C9.49595 3.81152 9.11995 4.17917 9.11995 4.6327V7.5084H5.72421C5.26036 7.5084 4.88436 7.87604 4.88436 8.32958V23.5926C2.02486 24.7129 0 27.4507 0 30.6421C0 34.8276 3.4825 38.2328 7.76318 38.2328C11.7601 38.2328 15.0612 35.264 15.4812 31.4633H37.9247C38.3885 31.4633 38.7645 31.0957 38.7645 30.6421V27.7665H42.1602C42.624 27.7665 43 27.3989 43 26.9453V4.6327C43 4.17917 42.624 3.81152 42.1602 3.81152ZM7.76318 36.5904C4.40876 36.5904 1.67969 33.922 1.67969 30.6421C1.67969 27.3622 4.40876 24.6939 7.76318 24.6939C11.1176 24.6939 13.8467 27.3623 13.8467 30.6421C13.8467 33.9219 11.1175 36.5904 7.76318 36.5904ZM9.94585 23.3569V21.7491H17.9218V25.7365H13.6827C12.7131 24.6197 11.4198 23.7798 9.94585 23.3569ZM37.0847 29.8209H15.4812C15.3855 28.9552 15.1404 28.1328 14.7716 27.3787H18.7616C19.2255 27.3787 19.6014 27.0111 19.6014 26.5576V20.9279C19.6014 20.4743 19.2255 20.1067 18.7616 20.1067H9.10592C8.64208 20.1067 8.26608 20.4743 8.26608 20.9279V23.0672C8.09979 23.0568 7.93207 23.0515 7.7631 23.0515C7.35544 23.0515 6.95491 23.0824 6.56405 23.1419V17.814H37.0847V29.8209ZM37.0847 16.1718H6.56405V15.0566H28.5255C28.9894 15.0566 29.3654 14.689 29.3654 14.2354C29.3654 13.7819 28.9894 13.4142 28.5255 13.4142H6.56405V12.299H37.0847V16.1718ZM37.0847 10.6566H6.56405V9.15076H37.0847V10.6566ZM41.3203 26.1241H38.7644V8.32958C38.7644 7.87604 38.3884 7.5084 37.9246 7.5084H10.7996V5.45388H41.3203V26.1241Z" fill="#002B3E"/>
<path d="M30.9923 19.1959C30.1184 19.1959 29.3 19.4329 28.6007 19.8446C27.8803 19.4187 27.0622 19.1959 26.2046 19.1959C23.6405 19.1959 21.5543 21.2357 21.5543 23.7429C21.5543 26.25 23.6404 28.2899 26.2046 28.2899C27.0622 28.2899 27.8803 28.0671 28.6007 27.6412C29.3 28.0529 30.1184 28.2899 30.9923 28.2899C33.5565 28.2899 35.6426 26.2501 35.6426 23.7429C35.6426 21.2357 33.5565 19.1959 30.9923 19.1959ZM27.2645 26.458C26.9303 26.5829 26.5732 26.6472 26.2046 26.6472C24.5666 26.6473 23.234 25.3444 23.234 23.7428C23.234 22.1413 24.5666 20.8382 26.2046 20.8382C26.5732 20.8382 26.9303 20.9026 27.2645 21.0274C26.6854 21.7856 26.342 22.7258 26.342 23.7427C26.342 24.7597 26.6853 25.6999 27.2645 26.458ZM30.9923 26.6473C29.3544 26.6473 28.0217 25.3444 28.0217 23.7427C28.0217 22.1412 29.3543 20.8381 30.9923 20.8381C32.6304 20.8381 33.9629 22.1411 33.9629 23.7427C33.9629 25.3444 32.6303 26.6473 30.9923 26.6473Z" fill="#002B3E"/>
</svg>
