<svg width="43" height="43" viewBox="0 0 43 43" fill="none" xmlns="http://www.w3.org/2000/svg">
<path d="M40.3125 3.35938H2.6875C1.57622 3.35938 0.671875 4.26372 0.671875 5.375V37.625C0.671875 38.7363 1.57622 39.6406 2.6875 39.6406H40.3125C41.4238 39.6406 42.3281 38.7363 42.3281 37.625V5.375C42.3281 4.26372 41.4238 3.35938 40.3125 3.35938ZM2.6875 4.70312H40.3125C40.6834 4.70312 40.9844 5.0048 40.9844 5.375V11.4219H2.01562V5.375C2.01562 5.0048 2.31662 4.70312 2.6875 4.70312ZM12.7656 12.7656H40.9844V20.8281H12.7656V12.7656ZM11.4219 20.8281H2.01562V12.7656H11.4219V20.8281ZM2.01562 37.625V22.1719H11.4219V38.2969H2.6875C2.31662 38.2969 2.01562 37.9952 2.01562 37.625ZM40.3125 38.2969H12.7656V22.1719H40.9844V37.625C40.9844 37.9952 40.6834 38.2969 40.3125 38.2969Z" fill="#002B3E"/>
<path d="M5.375 10.0781C6.48628 10.0781 7.39062 9.17378 7.39062 8.0625C7.39062 6.95122 6.48628 6.04688 5.375 6.04688C4.26372 6.04688 3.35938 6.95122 3.35938 8.0625C3.35938 9.17378 4.26372 10.0781 5.375 10.0781ZM5.375 7.39062C5.74587 7.39062 6.04688 7.6923 6.04688 8.0625C6.04688 8.4327 5.74587 8.73438 5.375 8.73438C5.00412 8.73438 4.70312 8.4327 4.70312 8.0625C4.70312 7.6923 5.00412 7.39062 5.375 7.39062Z" fill="#002B3E"/>
<path d="M10.75 10.0781C11.8613 10.0781 12.7656 9.17378 12.7656 8.0625C12.7656 6.95122 11.8613 6.04688 10.75 6.04688C9.63872 6.04688 8.73438 6.95122 8.73438 8.0625C8.73438 9.17378 9.63872 10.0781 10.75 10.0781ZM10.75 7.39062C11.1209 7.39062 11.4219 7.6923 11.4219 8.0625C11.4219 8.4327 11.1209 8.73438 10.75 8.73438C10.3791 8.73438 10.0781 8.4327 10.0781 8.0625C10.0781 7.6923 10.3791 7.39062 10.75 7.39062Z" fill="#002B3E"/>
<path d="M16.125 10.0781C17.2363 10.0781 18.1406 9.17378 18.1406 8.0625C18.1406 6.95122 17.2363 6.04688 16.125 6.04688C15.0137 6.04688 14.1094 6.95122 14.1094 8.0625C14.1094 9.17378 15.0137 10.0781 16.125 10.0781ZM16.125 7.39062C16.4959 7.39062 16.7969 7.6923 16.7969 8.0625C16.7969 8.4327 16.4959 8.73438 16.125 8.73438C15.7541 8.73438 15.4531 8.4327 15.4531 8.0625C15.4531 7.6923 15.7541 7.39062 16.125 7.39062Z" fill="#002B3E"/>
<path d="M10.0781 19.4844V14.1094H3.35938V19.4844H10.0781ZM4.70312 15.4531H8.73438V18.1406H4.70312V15.4531Z" fill="#002B3E"/>
<path d="M35.6094 14.1094C34.1272 14.1094 32.9219 15.3147 32.9219 16.7969C32.9219 18.279 34.1272 19.4844 35.6094 19.4844C37.0915 19.4844 38.2969 18.279 38.2969 16.7969C38.2969 15.3147 37.0915 14.1094 35.6094 14.1094ZM35.6094 18.1406C34.8683 18.1406 34.2656 17.538 34.2656 16.7969C34.2656 16.0558 34.8683 15.4531 35.6094 15.4531C36.3505 15.4531 36.9531 16.0558 36.9531 16.7969C36.9531 17.538 36.3505 18.1406 35.6094 18.1406Z" fill="#002B3E"/>
<path d="M27.5469 14.1094C26.0647 14.1094 24.8594 15.3147 24.8594 16.7969C24.8594 18.279 26.0647 19.4844 27.5469 19.4844C29.029 19.4844 30.2344 18.279 30.2344 16.7969C30.2344 15.3147 29.029 14.1094 27.5469 14.1094ZM27.5469 18.1406C26.8058 18.1406 26.2031 17.538 26.2031 16.7969C26.2031 16.0558 26.8058 15.4531 27.5469 15.4531C28.288 15.4531 28.8906 16.0558 28.8906 16.7969C28.8906 17.538 28.288 18.1406 27.5469 18.1406Z" fill="#002B3E"/>
<path d="M19.4844 14.1094C18.0022 14.1094 16.7969 15.3147 16.7969 16.7969C16.7969 18.279 18.0022 19.4844 19.4844 19.4844C20.9665 19.4844 22.1719 18.279 22.1719 16.7969C22.1719 15.3147 20.9665 14.1094 19.4844 14.1094ZM19.4844 18.1406C18.7433 18.1406 18.1406 17.538 18.1406 16.7969C18.1406 16.0558 18.7433 15.4531 19.4844 15.4531C20.2255 15.4531 20.8281 16.0558 20.8281 16.7969C20.8281 17.538 20.2255 18.1406 19.4844 18.1406Z" fill="#002B3E"/>
<path d="M3.35938 24.8594V28.8906H10.0781V24.8594H3.35938ZM8.73438 27.5469H4.70312V26.2031H8.73438V27.5469Z" fill="#002B3E"/>
<path d="M3.35938 35.6094H10.0781V31.5781H3.35938V35.6094ZM4.70312 32.9219H8.73438V34.2656H4.70312V32.9219Z" fill="#002B3E"/>
<path d="M24.8594 35.6094H23.5156V23.5156H19.4844V35.6094H18.1406V26.2031H14.1094V36.9531H28.8906V30.2344H24.8594V35.6094ZM16.7969 35.6094H15.4531V27.5469H16.7969V35.6094ZM20.8281 24.8594H22.1719V35.6094H20.8281V24.8594ZM26.2031 31.5781H27.5469V35.6094H26.2031V31.5781Z" fill="#002B3E"/>
<path d="M30.2344 28.8906H39.6406V23.5156H30.2344V28.8906ZM31.5781 24.8594H38.2969V27.5469H31.5781V24.8594Z" fill="#002B3E"/>
<path d="M30.2344 30.2344H31.5781V31.5781H30.2344V30.2344Z" fill="#002B3E"/>
<path d="M32.9219 30.2344H39.6406V31.5781H32.9219V30.2344Z" fill="#002B3E"/>
<path d="M30.2344 32.9219H31.5781V34.2656H30.2344V32.9219Z" fill="#002B3E"/>
<path d="M32.9219 32.9219H39.6406V34.2656H32.9219V32.9219Z" fill="#002B3E"/>
<path d="M30.2344 35.6094H31.5781V36.9531H30.2344V35.6094Z" fill="#002B3E"/>
<path d="M32.9219 35.6094H39.6406V36.9531H32.9219V35.6094Z" fill="#002B3E"/>
</svg>
