<svg width="35" height="35" viewBox="0 0 35 35" fill="none" xmlns="http://www.w3.org/2000/svg">
<g clip-path="url(#clip0)">
<path d="M32.8125 8.75H13.8542C12.6481 8.75 11.6667 7.76854 11.6667 6.5625V2.1875C11.6667 0.981458 12.6481 0 13.8542 0H32.8125C34.0185 0 35 0.981458 35 2.1875V6.5625C35 7.76854 34.0185 8.75 32.8125 8.75ZM13.8542 1.45833C13.4531 1.45833 13.125 1.785 13.125 2.1875V6.5625C13.125 6.965 13.4531 7.29167 13.8542 7.29167H32.8125C33.2135 7.29167 33.5417 6.965 33.5417 6.5625V2.1875C33.5417 1.785 33.2135 1.45833 32.8125 1.45833H13.8542Z" fill="#002B3E"/>
<path d="M4.375 8.75C1.96292 8.75 0 6.78708 0 4.375C0 1.96292 1.96292 0 4.375 0C6.78708 0 8.75 1.96292 8.75 4.375C8.75 6.78708 6.78708 8.75 4.375 8.75ZM4.375 1.45833C2.76646 1.45833 1.45833 2.76646 1.45833 4.375C1.45833 5.98354 2.76646 7.29167 4.375 7.29167C5.98354 7.29167 7.29167 5.98354 7.29167 4.375C7.29167 2.76646 5.98354 1.45833 4.375 1.45833Z" fill="#002B3E"/>
<path d="M34.2708 13.1251H19.6875C19.285 13.1251 18.9583 12.7984 18.9583 12.3959C18.9583 11.9934 19.285 11.6667 19.6875 11.6667H34.2708C34.6733 11.6667 35 11.9934 35 12.3959C35 12.7984 34.6733 13.1251 34.2708 13.1251Z" fill="#002B3E"/>
<path d="M34.2708 17.5H19.6875C19.285 17.5 18.9583 17.1733 18.9583 16.7708C18.9583 16.3683 19.285 16.0416 19.6875 16.0416H34.2708C34.6733 16.0416 35 16.3683 35 16.7708C35 17.1733 34.6733 17.5 34.2708 17.5Z" fill="#002B3E"/>
<path d="M34.2708 21.875H19.6875C19.285 21.875 18.9583 21.5483 18.9583 21.1458C18.9583 20.7433 19.285 20.4166 19.6875 20.4166H34.2708C34.6733 20.4166 35 20.7433 35 21.1458C35 21.5483 34.6733 21.875 34.2708 21.875Z" fill="#002B3E"/>
<path d="M34.2708 26.25H19.6875C19.285 26.25 18.9583 25.9233 18.9583 25.5208C18.9583 25.1183 19.285 24.7916 19.6875 24.7916H34.2708C34.6733 24.7916 35 25.1183 35 25.5208C35 25.9233 34.6733 26.25 34.2708 26.25Z" fill="#002B3E"/>
<path d="M34.2708 30.625H19.6875C19.285 30.625 18.9583 30.2983 18.9583 29.8958C18.9583 29.4933 19.285 29.1666 19.6875 29.1666H34.2708C34.6733 29.1666 35 29.4933 35 29.8958C35 30.2983 34.6733 30.625 34.2708 30.625Z" fill="#002B3E"/>
<path d="M34.2708 35H19.6875C19.285 35 18.9583 34.6733 18.9583 34.2708C18.9583 33.8683 19.285 33.5416 19.6875 33.5416H34.2708C34.6733 33.5416 35 33.8683 35 34.2708C35 34.6733 34.6733 35 34.2708 35Z" fill="#002B3E"/>
<path d="M13.8542 21.8751H2.18749C0.981451 21.8751 -7.62939e-06 20.8936 -7.62939e-06 19.6876V13.8542C-7.62939e-06 12.6482 0.981451 11.6667 2.18749 11.6667H13.8542C15.0602 11.6667 16.0417 12.6482 16.0417 13.8542V19.6876C16.0417 20.8936 15.0602 21.8751 13.8542 21.8751ZM2.18749 13.1251C1.78645 13.1251 1.45833 13.4517 1.45833 13.8542V19.6876C1.45833 20.0901 1.78645 20.4167 2.18749 20.4167H13.8542C14.2552 20.4167 14.5833 20.0901 14.5833 19.6876V13.8542C14.5833 13.4517 14.2552 13.1251 13.8542 13.1251H2.18749Z" fill="#002B3E"/>
<path d="M13.8542 35H2.18749C0.981451 35 -7.62939e-06 34.0185 -7.62939e-06 32.8125V26.9791C-7.62939e-06 25.7731 0.981451 24.7916 2.18749 24.7916H13.8542C15.0602 24.7916 16.0417 25.7731 16.0417 26.9791V32.8125C16.0417 34.0185 15.0602 35 13.8542 35ZM2.18749 26.25C1.78645 26.25 1.45833 26.5766 1.45833 26.9791V32.8125C1.45833 33.215 1.78645 33.5416 2.18749 33.5416H13.8542C14.2552 33.5416 14.5833 33.215 14.5833 32.8125V26.9791C14.5833 26.5766 14.2552 26.25 13.8542 26.25H2.18749Z" fill="#002B3E"/>
</g>
<defs>
<clipPath id="clip0">
<rect width="35" height="35" fill="white"/>
</clipPath>
</defs>
</svg>
