<svg width="262" height="53" viewBox="0 0 262 53" fill="none" xmlns="http://www.w3.org/2000/svg">
<g clip-path="url(#clip0)">
<path d="M58.5247 30.7647C57.5278 29.7647 57.0586 28.4706 57.0586 26.8823V26.0588C57.0586 25.8823 57.1759 25.7647 57.3519 25.7647H59.5803C59.7562 25.7647 59.8735 25.8823 59.8735 26.0588V26.7059C59.8735 27.647 60.1081 28.3529 60.5773 28.9412C61.0464 29.4706 61.6328 29.7647 62.3366 29.7647C63.0403 29.7647 63.6267 29.4706 64.0959 28.9412C64.565 28.4118 64.7996 27.7059 64.7996 26.8823C64.7996 26.2941 64.6823 25.7647 64.4477 25.3529C64.2131 24.9412 63.8613 24.5294 63.4508 24.1765C63.0403 23.8235 62.3952 23.2941 61.4569 22.647C60.46 21.8823 59.639 21.2353 59.0525 20.7059C58.4661 20.1765 57.9969 19.5294 57.5864 18.7647C57.1759 18 57 17.1176 57 16.1176C57 14.4706 57.4691 13.2353 58.4074 12.2353C59.3457 11.2941 60.6359 10.8235 62.1606 10.8235C63.744 10.8235 65.0342 11.3529 66.0311 12.3529C66.9694 13.3529 67.4972 14.7059 67.4972 16.3529V17.0588C67.4972 17.2353 67.3799 17.3529 67.204 17.3529H64.9755C64.7996 17.3529 64.6823 17.2353 64.6823 17.0588V16.2353C64.6823 15.3529 64.4477 14.5882 63.9786 14.0588C63.5094 13.5294 62.923 13.2353 62.1606 13.2353C61.4569 13.2353 60.8705 13.4706 60.46 13.9412C60.0495 14.4118 59.8149 15.1176 59.8149 16C59.8149 16.8235 60.0495 17.4706 60.46 18C60.8705 18.5294 61.7501 19.2941 62.9816 20.2353C64.2131 21.1176 65.0928 21.8823 65.7379 22.4117C66.3243 23 66.7935 23.5882 67.1453 24.2353C67.4972 24.8823 67.6145 25.7059 67.6145 26.647C67.6145 28.3529 67.1453 29.647 66.1484 30.7059C65.1514 31.7059 63.8613 32.2353 62.2779 32.2353C60.7532 32.2353 59.463 31.7647 58.5247 30.7647Z" fill="white"/>
<path d="M71.6022 30.9412C70.7226 30.0588 70.2534 28.9412 70.2534 27.4706V21.2941C70.2534 19.8823 70.7226 18.7059 71.6022 17.8235C72.4819 16.9412 73.7134 16.5294 75.2381 16.5294C76.235 16.5294 77.1733 16.7059 77.9357 17.1176C78.6981 17.5294 79.2845 18.0588 79.695 18.7059C80.1055 19.3529 80.2814 20.1176 80.2814 21V21.4117C80.2814 21.5882 80.1642 21.7059 79.9882 21.7059L77.7011 21.8235C77.5252 21.8235 77.4079 21.7059 77.4079 21.5294V21.2353C77.4079 20.647 77.1733 20.1764 76.7628 19.7059C76.3523 19.2353 75.8245 19.0588 75.1795 19.0588C74.5344 19.0588 74.0066 19.2941 73.5961 19.7647C73.1856 20.2353 73.0097 20.8235 73.0097 21.5294V27.3529C73.0097 28.0588 73.1856 28.647 73.5961 29.1176C74.0066 29.5882 74.5344 29.8235 75.1795 29.8235C75.8245 29.8235 76.2937 29.5882 76.7628 29.1764C77.232 28.7647 77.4079 28.2353 77.4079 27.647V27.3529C77.4079 27.1764 77.5252 27.0588 77.7011 27.0588H80.0469C80.2228 27.0588 80.3401 27.1764 80.3401 27.3529V27.8235C80.3401 29.1176 79.8709 30.1764 78.9913 31C78.053 31.8235 76.8215 32.2353 75.2967 32.2353C73.772 32.2353 72.5405 31.8235 71.6022 30.9412Z" fill="white"/>
<path d="M92.1274 17.8235C92.7725 18.6471 93.1244 19.8824 93.1244 21.4118V31.7059C93.1244 31.8824 93.0071 32 92.8311 32H90.6027C90.4268 32 90.3095 31.8824 90.3095 31.7059V21.6471C90.3095 20.8235 90.1335 20.1765 89.7817 19.7059C89.4298 19.2353 88.902 19 88.2569 19C87.5532 19 87.0254 19.2353 86.6149 19.7059C86.2631 20.1765 86.0285 20.8824 86.0285 21.7059V31.6471C86.0285 31.8235 85.9112 31.9412 85.7353 31.9412H83.4482C83.2723 31.9412 83.155 31.8235 83.155 31.6471V11.2941C83.155 11.1176 83.2723 11 83.4482 11H85.7353C85.9112 11 86.0285 11.1176 86.0285 11.2941V17.8235C86.0285 17.8824 86.0285 17.8824 86.0871 17.8824C86.1458 17.8824 86.1458 17.8824 86.2044 17.8235C86.9081 16.9412 87.9051 16.5294 89.2539 16.5294C90.544 16.5294 91.4823 16.9412 92.1274 17.8235Z" fill="white"/>
<path d="M105.909 25.5882H99.1646C99.106 25.5882 99.0473 25.647 99.0473 25.7059V27.3529C99.0473 28.0588 99.2232 28.647 99.6338 29.1176C100.044 29.5882 100.572 29.8235 101.217 29.8235C101.804 29.8235 102.273 29.647 102.625 29.2941C102.976 28.9412 103.27 28.5294 103.328 28C103.387 27.8235 103.504 27.7647 103.68 27.7647L105.909 27.8823C106.026 27.8823 106.085 27.9412 106.143 28C106.202 28.0588 106.202 28.1176 106.202 28.2353C106.085 29.5294 105.557 30.5294 104.736 31.2941C103.915 32 102.742 32.4117 101.276 32.4117C99.751 32.4117 98.5195 32 97.6399 31.1176C96.7602 30.2353 96.2911 29.1176 96.2911 27.647V21.2941C96.2911 19.8823 96.7602 18.7059 97.6399 17.8235C98.5195 16.9412 99.751 16.5294 101.276 16.5294C102.859 16.5294 104.032 16.9412 104.97 17.8235C105.85 18.7059 106.319 19.8823 106.319 21.2941V25.2941C106.202 25.4706 106.085 25.5882 105.909 25.5882ZM99.6338 19.7059C99.2232 20.1764 99.0473 20.7647 99.0473 21.4706V23.0588C99.0473 23.1176 99.106 23.1764 99.1646 23.1764H103.27C103.328 23.1764 103.387 23.1176 103.387 23.0588V21.4706C103.387 20.7647 103.211 20.1764 102.801 19.7059C102.39 19.2353 101.862 19 101.217 19C100.513 19 100.044 19.2353 99.6338 19.7059Z" fill="white"/>
<path d="M116.406 11H118.693C118.869 11 118.986 11.1176 118.986 11.2941V31.7059C118.986 31.8824 118.869 32 118.693 32H116.406C116.23 32 116.113 31.8824 116.113 31.7059V31C116.113 30.9412 116.113 30.9412 116.054 30.8824C115.995 30.8824 115.995 30.8824 115.937 30.9412C115.585 31.3529 115.116 31.7059 114.588 31.9412C114.06 32.1765 113.532 32.2353 113.063 32.2353C111.773 32.2353 110.717 31.8235 110.014 30.9412C109.31 30.0588 108.899 28.9412 108.899 27.4706V21.2941C108.899 19.8235 109.251 18.6471 110.014 17.8235C110.776 17 111.773 16.5882 113.063 16.5882C113.591 16.5882 114.119 16.7059 114.588 16.8824C115.116 17.1176 115.526 17.4118 115.937 17.8824C115.995 17.9412 115.995 17.9412 116.054 17.9412C116.113 17.9412 116.113 17.8824 116.113 17.8235V11.3529C116.113 11.1176 116.23 11 116.406 11ZM115.467 19.7059C115.057 19.2353 114.588 19 113.943 19C113.298 19 112.77 19.2353 112.359 19.7059C111.949 20.1765 111.773 20.7647 111.773 21.4706V27.3529C111.773 28.0588 111.949 28.6471 112.359 29.1176C112.77 29.5882 113.298 29.7647 113.943 29.7647C114.588 29.7647 115.116 29.5294 115.467 29.1176C115.878 28.6471 116.054 28.0588 116.054 27.3529V21.4706C116.054 20.7059 115.878 20.1176 115.467 19.7059Z" fill="white"/>
<path d="M129.601 16.7647H131.888C132.064 16.7647 132.181 16.8824 132.181 17.0588V31.7059C132.181 31.8824 132.064 32 131.888 32H129.601C129.425 32 129.307 31.8824 129.307 31.7059V30.8235C129.307 30.7647 129.307 30.7059 129.249 30.7059C129.19 30.7059 129.19 30.7059 129.131 30.7647C128.545 31.7059 127.548 32.1765 126.258 32.1765C125.085 32.1765 124.088 31.8235 123.384 31.0588C122.622 30.3529 122.27 29.2353 122.27 27.7059V17.0588C122.27 16.8824 122.387 16.7647 122.563 16.7647H124.85C125.026 16.7647 125.144 16.8824 125.144 17.0588V27.1765C125.144 28.8824 125.847 29.7647 127.196 29.7647C127.9 29.7647 128.369 29.5294 128.78 29.0588C129.131 28.5882 129.307 27.8824 129.307 27.0588V17.0588C129.307 16.8235 129.425 16.7647 129.601 16.7647Z" fill="white"/>
<path d="M135.465 31.7059V11.2941C135.465 11.1176 135.582 11 135.758 11H138.045C138.221 11 138.338 11.1176 138.338 11.2941V31.7059C138.338 31.8824 138.221 32 138.045 32H135.758C135.582 32 135.465 31.9412 135.465 31.7059Z" fill="white"/>
<path d="M151.123 25.5882H144.379C144.32 25.5882 144.261 25.647 144.261 25.7059V27.3529C144.261 28.0588 144.437 28.647 144.848 29.1176C145.258 29.5882 145.786 29.8235 146.431 29.8235C147.018 29.8235 147.487 29.647 147.839 29.2941C148.191 28.9412 148.484 28.5294 148.542 28C148.601 27.8235 148.718 27.7647 148.894 27.7647L151.123 27.8823C151.24 27.8823 151.299 27.9412 151.357 28C151.416 28.0588 151.416 28.1176 151.416 28.2353C151.299 29.5294 150.771 30.5294 149.95 31.2941C149.129 32 147.956 32.4117 146.49 32.4117C144.965 32.4117 143.734 32 142.854 31.1176C141.974 30.2353 141.505 29.1176 141.505 27.647V21.2941C141.505 19.8823 141.974 18.7059 142.854 17.8235C143.734 16.9412 144.965 16.5294 146.49 16.5294C148.073 16.5294 149.246 16.9412 150.184 17.8235C151.064 18.7059 151.533 19.8823 151.533 21.2941V25.2941C151.416 25.4706 151.299 25.5882 151.123 25.5882ZM144.848 19.7059C144.437 20.1764 144.261 20.7647 144.261 21.4706V23.0588C144.261 23.1176 144.32 23.1764 144.379 23.1764H148.484C148.542 23.1764 148.601 23.1176 148.601 23.0588V21.4706C148.601 20.7647 148.425 20.1764 148.015 19.7059C147.604 19.2353 147.076 19 146.431 19C145.728 19 145.2 19.2353 144.848 19.7059Z" fill="white"/>
<path d="M164.376 31.7647L160.095 11.3529V11.2941C160.095 11.1176 160.212 11 160.388 11H162.851C163.027 11 163.145 11.1176 163.203 11.2941L166.018 26.8824C166.018 26.9412 166.077 26.9412 166.077 26.9412C166.077 26.9412 166.135 26.9412 166.135 26.8824L168.892 11.2941C168.95 11.1176 169.068 11 169.244 11H171.648C171.882 11 171.941 11.1176 171.941 11.3529L167.543 31.7647C167.543 31.9412 167.426 32.0588 167.191 32.0588H164.669C164.493 32 164.376 31.9412 164.376 31.7647Z" fill="white"/>
<path d="M182.497 17.8823C183.435 18.8235 183.904 20 183.904 21.5294V31.7059C183.904 31.8823 183.787 32 183.611 32H181.324C181.148 32 181.031 31.8823 181.031 31.7059V31.0588C181.031 31 181.031 31 180.972 30.9412C180.914 30.9412 180.914 30.9412 180.855 31C180.151 31.8235 179.154 32.2353 177.747 32.2353C176.633 32.2353 175.636 31.8823 174.756 31.2353C173.876 30.5882 173.466 29.4117 173.466 27.7647C173.466 26 173.994 24.7647 175.049 23.9412C176.105 23.1176 177.454 22.7059 179.154 22.7059H180.914C180.972 22.7059 181.031 22.647 181.031 22.5882V21.7647C181.031 20.9412 180.855 20.2353 180.444 19.7647C180.034 19.2941 179.506 19 178.861 19C178.333 19 177.923 19.1764 177.63 19.5294C177.278 19.8823 177.102 20.2941 177.043 20.8235C177.043 21 176.926 21.1176 176.75 21.1176H174.346C174.17 21.1176 174.052 21 174.052 20.8235C174.17 19.5294 174.639 18.5294 175.577 17.7059C176.515 16.8823 177.63 16.5294 178.978 16.5294C180.386 16.5294 181.559 16.9412 182.497 17.8823ZM180.268 29.0588C180.796 28.647 181.031 28 181.031 27.1764V25.1176C181.031 25.0588 180.972 25 180.914 25H179.096C178.275 25 177.688 25.2353 177.16 25.647C176.633 26.0588 176.457 26.7059 176.457 27.5294C176.457 28.2353 176.633 28.7647 176.984 29.1764C177.336 29.5882 177.805 29.7059 178.392 29.7059C179.096 29.7647 179.741 29.5294 180.268 29.0588Z" fill="white"/>
<path d="M186.895 31.7059V11.2941C186.895 11.1176 187.012 11 187.188 11H189.476C189.651 11 189.769 11.1176 189.769 11.2941V31.7059C189.769 31.8824 189.651 32 189.476 32H187.188C187.012 32 186.895 31.9412 186.895 31.7059Z" fill="white"/>
<path d="M193.346 13.9412C192.994 13.5882 192.818 13.1176 192.818 12.5882C192.818 12 192.994 11.5882 193.346 11.2353C193.698 10.8823 194.108 10.7059 194.636 10.7059C195.164 10.7059 195.633 10.8823 195.926 11.2353C196.278 11.5882 196.395 12.0588 196.395 12.5882C196.395 13.1765 196.22 13.647 195.926 14C195.574 14.3529 195.164 14.5294 194.636 14.5294C194.108 14.4706 193.698 14.2941 193.346 13.9412ZM193.229 31.7059V17.0588C193.229 16.8823 193.346 16.7647 193.522 16.7647H195.809C195.985 16.7647 196.102 16.8823 196.102 17.0588V31.7059C196.102 31.8823 195.985 32 195.809 32H193.522C193.346 32 193.229 31.9412 193.229 31.7059Z" fill="white"/>
<path d="M206.893 11H209.18C209.356 11 209.473 11.1176 209.473 11.2941V31.7059C209.473 31.8824 209.356 32 209.18 32H206.893C206.717 32 206.599 31.8824 206.599 31.7059V31C206.599 30.9412 206.599 30.9412 206.541 30.8824C206.482 30.8824 206.482 30.8824 206.423 30.9412C206.072 31.3529 205.602 31.7059 205.075 31.9412C204.547 32.1765 204.019 32.2353 203.55 32.2353C202.26 32.2353 201.204 31.8235 200.5 30.9412C199.797 30.0588 199.386 28.9412 199.386 27.4706V21.2941C199.386 19.8235 199.738 18.6471 200.5 17.8235C201.263 17 202.26 16.5882 203.55 16.5882C204.078 16.5882 204.605 16.7059 205.075 16.8824C205.602 17.1176 206.013 17.4118 206.423 17.8824C206.482 17.9412 206.482 17.9412 206.541 17.9412C206.599 17.9412 206.599 17.8824 206.599 17.8235V11.3529C206.599 11.1176 206.658 11 206.893 11ZM205.954 19.7059C205.544 19.2353 205.075 19 204.43 19C203.784 19 203.257 19.2353 202.846 19.7059C202.436 20.1765 202.26 20.7647 202.26 21.4706V27.3529C202.26 28.0588 202.436 28.6471 202.846 29.1176C203.257 29.5882 203.784 29.7647 204.43 29.7647C205.075 29.7647 205.602 29.5294 205.954 29.1176C206.365 28.6471 206.541 28.0588 206.541 27.3529V21.4706C206.541 20.7059 206.365 20.1176 205.954 19.7059Z" fill="white"/>
<path d="M221.26 17.8823C222.199 18.8235 222.668 20 222.668 21.5294V31.7059C222.668 31.8823 222.55 32 222.375 32H220.087C219.911 32 219.794 31.8823 219.794 31.7059V31.0588C219.794 31 219.794 31 219.736 30.9412C219.677 30.9412 219.677 30.9412 219.618 31C218.915 31.8235 217.918 32.2353 216.51 32.2353C215.396 32.2353 214.399 31.8823 213.519 31.2353C212.64 30.5882 212.229 29.4117 212.229 27.7647C212.229 26 212.757 24.7647 213.813 23.9412C214.868 23.1176 216.217 22.7059 217.918 22.7059H219.677C219.736 22.7059 219.794 22.647 219.794 22.5882V21.7647C219.794 20.9412 219.618 20.2353 219.208 19.7647C218.797 19.2941 218.269 19 217.624 19C217.097 19 216.686 19.1764 216.393 19.5294C216.041 19.8823 215.865 20.2941 215.806 20.8235C215.806 21 215.689 21.1176 215.513 21.1176H213.109C212.933 21.1176 212.816 21 212.816 20.8235C212.933 19.5294 213.402 18.5294 214.34 17.7059C215.279 16.8823 216.393 16.5294 217.742 16.5294C219.149 16.5294 220.381 16.9412 221.26 17.8823ZM219.032 29.0588C219.56 28.647 219.794 28 219.794 27.1764V25.1176C219.794 25.0588 219.736 25 219.677 25H217.859C217.038 25 216.452 25.2353 215.924 25.647C215.396 26.0588 215.22 26.7059 215.22 27.5294C215.22 28.2353 215.396 28.7647 215.748 29.1764C216.1 29.5882 216.569 29.7059 217.155 29.7059C217.918 29.7647 218.504 29.5294 219.032 29.0588Z" fill="white"/>
<path d="M231.464 18.8235H229.353C229.294 18.8235 229.236 18.8823 229.236 18.9412V27.3529C229.236 28.1765 229.353 28.7059 229.646 29C229.939 29.2941 230.35 29.4706 230.936 29.4118H231.23C231.406 29.4118 231.523 29.5294 231.523 29.7059V31.647C231.523 31.8235 231.406 31.9412 231.23 31.9412H230.291C229.001 31.9412 228.063 31.7059 227.418 31.1765C226.773 30.647 226.421 29.7059 226.421 28.3529V18.9412C226.421 18.8823 226.362 18.8235 226.304 18.8235H225.131C224.955 18.8235 224.837 18.7059 224.837 18.5294V17.0588C224.837 16.8823 224.955 16.7647 225.131 16.7647H226.304C226.362 16.7647 226.421 16.7059 226.421 16.647V13.2353C226.421 13.0588 226.538 12.9412 226.714 12.9412H228.884C229.06 12.9412 229.177 13.0588 229.177 13.2353V16.647C229.177 16.7059 229.236 16.7647 229.294 16.7647H231.406C231.582 16.7647 231.699 16.8823 231.699 17.0588V18.5882C231.757 18.7647 231.699 18.8235 231.464 18.8235Z" fill="white"/>
<path d="M235.452 30.9412C234.572 30.0588 234.103 28.9412 234.103 27.4706V21.2941C234.103 19.8823 234.572 18.7059 235.452 17.8235C236.39 16.9412 237.622 16.5294 239.146 16.5294C240.73 16.5294 241.961 16.9412 242.841 17.8235C243.721 18.7059 244.19 19.8823 244.19 21.2941V27.5294C244.19 28.9412 243.721 30.1176 242.841 31C241.961 31.8823 240.73 32.2941 239.146 32.2941C237.563 32.2353 236.332 31.8235 235.452 30.9412ZM240.671 29.0588C241.082 28.5882 241.258 28 241.258 27.2941V21.4706C241.258 20.7647 241.082 20.1764 240.671 19.7059C240.261 19.2353 239.733 19 239.088 19C238.443 19 237.915 19.2353 237.504 19.7059C237.094 20.1764 236.918 20.7647 236.918 21.4706V27.2941C236.918 28 237.094 28.5882 237.504 29.0588C237.915 29.5294 238.443 29.7059 239.088 29.7059C239.792 29.7647 240.319 29.5294 240.671 29.0588Z" fill="white"/>
<path d="M254.394 16.9412C254.511 17 254.57 17.1765 254.57 17.3529L254.101 19.647C254.101 19.8235 253.983 19.8823 253.749 19.8235C253.514 19.7059 253.162 19.647 252.869 19.647C252.635 19.647 252.517 19.647 252.4 19.7059C251.755 19.7647 251.286 20.1176 250.875 20.7647C250.465 21.4117 250.289 22.1176 250.289 23V31.7647C250.289 31.9412 250.171 32.0588 249.996 32.0588H247.708C247.533 32.0588 247.415 31.9412 247.415 31.7647V17.0588C247.415 16.8823 247.533 16.7647 247.708 16.7647H249.996C250.171 16.7647 250.289 16.8823 250.289 17.0588V18.8235C250.289 18.8823 250.289 18.9412 250.347 18.9412C250.406 18.9412 250.406 18.9412 250.406 18.8823C250.992 17.4117 251.931 16.647 253.162 16.647C253.573 16.5882 254.042 16.7059 254.394 16.9412Z" fill="white"/>
<g clip-path="url(#clip1)">
<path d="M20.9934 43.6107C35.3574 43.624 46.9867 45.0659 47 46.8252C46.9867 48.5846 35.3309 50.0132 20.9801 50C6.64258 49.9735 -5 48.5449 -5 46.7723C-5 45.0394 6.64258 43.5975 20.9934 43.6107Z" fill="url(#paint0_radial)" style="mix-blend-mode:multiply"/>
<path d="M41.7031 9.15114L20.2101 3L0.310181 9.54799L21.8164 15.805L41.7031 9.15114Z" fill="#46A147"/>
<path d="M41.7031 9.15115L21.8164 15.805L21.7235 41.5207L41.5305 34.6685L41.7031 9.15115Z" fill="#184343"/>
<path d="M21.8164 15.805L0.310181 9.548L0.323456 35.0918L21.7235 41.5207L21.8164 15.805Z" fill="#2C8C2C"/>
</g>
</g>
<defs>
<radialGradient id="paint0_radial" cx="0" cy="0" r="1" gradientUnits="userSpaceOnUse" gradientTransform="translate(21.0032 46.8095) rotate(-89.8934) scale(3.19554 26.0002)">
<stop stop-color="#C7C7C7"/>
<stop offset="0.0332853" stop-color="#CCCCCC"/>
<stop offset="0.23" stop-color="#E2E2E2"/>
<stop offset="0.443" stop-color="#F2F2F2"/>
<stop offset="0.6818" stop-color="#FCFCFC"/>
<stop offset="1" stop-color="white"/>
</radialGradient>
<clipPath id="clip0">
<rect width="262" height="53" fill="white"/>
</clipPath>
<clipPath id="clip1">
<rect width="52" height="47" fill="white" transform="translate(-5 3)"/>
</clipPath>
</defs>
</svg>
