<svg width="46" height="32" viewBox="0 0 46 32" fill="none" xmlns="http://www.w3.org/2000/svg">
<path d="M25.6 31.76C24.96 27.76 24.64 24.16 24.64 20.96C24.64 13.7067 26.32 8.4 29.68 5.04C33.1467 1.68 38.4267 0 45.52 0V8.8L45.6 8.88C44.3733 8.88 43.36 8.96 42.56 9.12C41.6533 9.28 40.9333 9.54667 40.4 9.92C39.92 10.2933 39.4933 10.6933 39.12 11.12C38.8 11.4933 38.56 12.08 38.4 12.88C38.24 13.68 38.16 14.3733 38.16 14.96C38.1067 15.3333 38.08 16.16 38.08 17.44H45.52V31.76H25.6ZM0.959991 31.84C0.319991 27.84 0 24.24 0 21.04C0 13.7867 1.70666 8.48 5.12 5.12C8.48 1.76 13.76 0.0799999 20.96 0.0799999V8.96C19.7867 8.96 18.7733 9.04 17.92 9.2C16.96 9.36 16.2667 9.62667 15.84 10C15.2 10.48 14.7733 10.88 14.56 11.2C14.24 11.5733 14 12.16 13.84 12.96L13.52 15.04V17.52H20.88V31.84H0.959991Z" fill="#2C8C2C"/>
</svg>
